<svg xmlns="http://www.w3.org/2000/svg" width="40" height="40"><path d="M20 0 4.207 1.652v28.953L20 40l15.793-9.395V1.652L20.164.02Zm13.723 29.426L20 37.598 6.277 29.426v-11.86l13.664 8.13.02 1.476-9.375-5.586-.012 1.441 9.414 5.657.028 1.511-9.414-5.601-.016 1.433L20 31.684l9.508-5.688v-1.441l-.016.008v-4.676l4.235-2.528Zm-.004-13.598-5.489 3.235-8.27-4.922-.01 1.433 7.062 4.196-.059.039-.156.093-1.004.59-5.832-3.469-.012 1.426 4.602 2.742-1.09.73-.023.013-3.477-2.051-.012 1.43 2.278 1.347-2.325 1.395-13.601-8.086 13.62-8.184Zm.004-1.441L19.922 6.25 6.273 14.375V3.515L20 2.079l13.73 1.438v10.867Zm0 0" style="stroke:none;fill-rule:nonzero;fill:#000;fill-opacity:1"/></svg>