<svg xmlns="http://www.w3.org/2000/svg" xml:space="preserve" stroke-width=".005" viewBox="0 0 512 512"><circle cx="255.997" cy="255.997" r="167.991" style="fill:#deea39"/><path d="M256 0c-7.664 0-13.877 6.213-13.877 13.877S248.336 27.753 256 27.753c57.945 0 110.905 21.716 151.199 57.422l-32.781 32.781C341.468 89.6 299.928 74.132 256 74.132c-45.156 0-86.517 16.549-118.35 43.892L95.044 75.42c-.075-.075-.158-.139-.235-.212-.071-.075-.132-.154-.205-.228-5.417-5.419-14.206-5.419-19.624 0C26.628 123.332 0 187.62 0 256c0 141.159 114.841 256 256 256 68.38 0 132.667-26.628 181.02-74.98C485.372 388.668 512 324.38 512 256 512 114.841 397.159 0 256 0zm109.043 147.093c5.416 5.423 14.201 5.429 19.624.011.402-.402.766-.828 1.109-1.264.029-.029.061-.053.09-.082l40.957-40.957c32.834 37.054 53.823 84.82 56.987 137.322h-15.439c-7.664 0-13.877 6.213-13.877 13.877s6.213 13.877 13.877 13.877h15.443c-3.047 51.144-22.904 99.082-56.912 137.403l-32.929-32.929c27.344-31.833 43.892-73.193 43.892-118.35 0-7.664-6.213-13.877-13.877-13.877s-13.877 6.213-13.877 13.877c0 84.978-69.135 154.115-154.115 154.115S101.883 340.979 101.883 256s69.135-154.115 154.115-154.115c41.203 0 79.929 16.056 109.045 45.208zM256 453.159c-7.664 0-13.877 6.213-13.877 13.877v16.777c-52.502-3.165-100.269-24.154-137.322-56.987l32.849-32.849c31.833 27.344 73.193 43.892 118.35 43.892s86.517-16.549 118.35-43.892l32.929 32.929c-38.319 34.009-86.259 53.867-137.403 56.912v-16.782c.001-7.665-6.212-13.877-13.876-13.877zM28.188 269.877h46.47c3.011 39.73 18.85 75.932 43.367 104.473l-32.85 32.849c-32.833-37.053-53.822-84.82-56.987-137.322zM85.096 104.72l32.929 32.929c-24.517 28.542-40.355 64.743-43.367 104.473H28.182c3.047-51.143 22.905-99.081 56.914-137.402z" style="fill:#131416"/><path d="M268.678 244.092v-45.045c17.98 3.153 20.683 13.12 21.09 18.981a2.853 2.853 0 0 0 2.849 2.663h19.638c1.649 0 2.947-1.396 2.863-3.043-1.275-24.706-18.209-40.603-46.44-44.174v-15.148a2.858 2.858 0 0 0-2.859-2.859h-19.637a2.858 2.858 0 0 0-2.859 2.859v15.148c-29.374 3.715-46.517 20.773-46.517 47.215 0 26.443 17.143 43.501 46.517 47.215v45.047c-17.98-3.153-20.683-13.12-21.09-18.981a2.853 2.853 0 0 0-2.849-2.663h-19.638c-1.649 0-2.947 1.396-2.863 3.043 1.275 24.706 18.209 40.603 46.44 44.174v15.148a2.858 2.858 0 0 0 2.859 2.859h19.637a2.858 2.858 0 0 0 2.859-2.859v-15.148c29.374-3.715 46.517-20.773 46.517-47.215 0-26.443-17.143-43.502-46.517-47.217zm-25.356-1.759c-21.158-3.709-21.162-16.856-21.162-21.642 0-4.786.004-17.933 21.162-21.643v43.285zm25.356 70.62v-43.287c21.158 3.711 21.162 16.857 21.162 21.643s-.004 17.933-21.162 21.644z" style="fill:#131416"/></svg>