<svg xmlns="http://www.w3.org/2000/svg" width="58" height="58" viewBox="0 0 58 57"><path d="M475 64H37C16.586 64 0 81.368 0 102.772v306.421C0 430.596 16.586 448 37 448h438c20.38 0 37-17.404 37-38.807V102.772C512 81.368 495.414 64 475 64ZM288 368h-64V256l-48 64-48-64v112H64V144h64l48 80 48-80h64Zm96 0-80-112h48.034L352 144h64v112h48Zm0 0" style="fill-rule:nonzero;fill:#000;fill-opacity:1;stroke-width:13.312;stroke-linecap:butt;stroke-linejoin:miter;stroke:#000;stroke-opacity:1;stroke-miterlimit:4" transform="scale(.11328 .11133)"/></svg>