<svg xmlns="http://www.w3.org/2000/svg" width="58" height="58" viewBox="0 0 58 57"><path d="M624.069 890.316c-107.655 0-205.724-63.72-250-162.316l-4.138-9.333H129.103v-584.07h744.138v368.49l1.38 3.088c15.586 35.158 23.517 72.281 23.517 110.386 0 150.948-122.966 273.755-274.069 273.755Zm0 0" style="fill-rule:nonzero;fill:#fff;fill-opacity:1;stroke-width:1.048;stroke-linecap:butt;stroke-linejoin:miter;stroke:#000;stroke-opacity:1;stroke-miterlimit:4" transform="scale(.05664 .05566)"/><path d="M889.103 499.72V134.595c0-8.771-7.103-15.86-15.862-15.86H129.103c-4.206 0-8.206 1.685-11.172 4.632-2.965 2.948-4.62 7.018-4.62 11.228v584.07c0 8.702 7.034 15.86 15.792 15.86h230.552c45.31 100.983 146.69 171.58 264.414 171.58C784 906.105 914 776.28 914 616.56c0-41.543-9.034-81.052-24.897-116.842Zm0 0" style="fill-rule:nonzero;fill:#0a0a0a;fill-opacity:1;stroke-width:1.048;stroke-linecap:butt;stroke-linejoin:miter;stroke:#000;stroke-opacity:1;stroke-miterlimit:4" transform="scale(.05664 .05566)"/><path d="M754.276 145.123h63.31v63.298h-63.31Zm-109.448 0h63.31v63.298h-63.31Zm0 0" style="fill-rule:nonzero;fill:#fff;fill-opacity:1;stroke-width:1.048;stroke-linecap:butt;stroke-linejoin:miter;stroke:#000;stroke-opacity:1;stroke-miterlimit:4" transform="scale(.05664 .05566)"/><path d="M479.241 486.035c-10.344 34.877-16.482 74.176-17.724 116.21h-79.034c2.483-42.666 16-82.315 37.862-116.21Zm-34.482-31.72c21.172-23.297 46.758-42.455 75.517-56.14-11.448 16.14-21.517 35.158-29.931 56.14Zm-62.138 179.58h78.965c1.38 41.123 7.586 79.649 17.862 113.824H420.69c-21.518-33.263-35.104-72.07-38.07-113.824Zm62.69 145.544h45.24c8.415 20.772 18.346 39.579 29.725 55.579-28.552-13.614-53.862-32.562-74.966-55.58Zm162.965 78.386c-7.31-.421-14.483-1.264-21.655-2.316-23.793-14.105-44.759-41.053-60.966-76.07h82.62Zm0-110.106h-95.104c-11.241-33.754-18.344-72.49-19.862-113.824h114.966Zm0-145.473H493.172c1.38-42.176 8.483-81.825 19.862-116.21h95.242Zm0-147.93h-82.897c16.207-35.369 37.38-62.456 61.242-76.632 7.172-1.123 14.413-1.895 21.655-2.386Zm0 0" style="fill-rule:nonzero;fill:#2ee5ca;fill-opacity:1;stroke-width:1.048;stroke-linecap:butt;stroke-linejoin:miter;stroke:#000;stroke-opacity:1;stroke-miterlimit:4" transform="scale(.05664 .05566)"/><path d="M334.276 616.561c0 24.702 3.448 48.562 9.31 71.51H160.483V237.753h681.93v188.913c-53.172-60.913-131.24-99.65-218.344-99.65-159.793 0-289.793 129.895-289.793 289.544Zm0 0" style="fill-rule:nonzero;fill:#f4ce73;fill-opacity:1;stroke-width:1.048;stroke-linecap:butt;stroke-linejoin:miter;stroke:#000;stroke-opacity:1;stroke-miterlimit:4" transform="scale(.05664 .05566)"/><path d="M639.931 602.246v-116.21h96.345c11.448 34.385 18.552 74.034 19.862 116.21Zm116.138 31.649c-1.517 41.333-8.69 80.07-20 113.824h-96.138V633.895Zm-116.138-179.58v-79.017a226.411 226.411 0 0 1 23.241 2.667c23.725 14.246 44.69 41.263 60.828 76.35Zm89.655-55.297c27.931 13.543 53.035 32.28 73.862 55.298h-44.414c-8.344-20.632-18.206-39.298-29.448-55.298Zm-66.414 456.21c-7.724 1.263-15.448 2.105-23.241 2.597v-78.386h83.724c-16 34.807-36.896 61.614-60.483 75.79Zm66.414-21.053c11.173-15.86 20.897-34.315 29.242-54.736h44.138c-20.76 22.736-45.656 41.333-73.38 54.736Zm97.931-86.456h-57.586c10.207-34.175 16.414-72.701 17.793-113.824h77.862c-2.965 41.754-16.483 80.561-38.069 113.824Zm-39.724-145.473c-1.172-42.035-7.38-81.334-17.724-116.21h57.793c21.931 33.894 35.38 73.543 37.862 116.21Zm0 0" style="fill-rule:nonzero;fill:#2ee5ca;fill-opacity:1;stroke-width:1.048;stroke-linecap:butt;stroke-linejoin:miter;stroke:#000;stroke-opacity:1;stroke-miterlimit:4" transform="scale(.05664 .05566)"/></svg>