<svg xmlns="http://www.w3.org/2000/svg" width="40" height="40"><path d="M126 64c0-34.237-27.763-62-62-62C29.763 2 2 29.762 2 64c0 34.237 27.762 62 62 62 34.237 0 62-27.763 62-62Zm0 0" style="fill-rule:nonzero;fill:#000;fill-opacity:1;stroke-width:3.056;stroke-linecap:butt;stroke-linejoin:miter;stroke:#000;stroke-opacity:1;stroke-miterlimit:4" transform="scale(.3125)"/><path d="M56.025 46.475A8.091 8.091 0 0 1 64 38.25a8.091 8.091 0 0 1 7.975 8.225V73h-15.95ZM38 73V46.475C38 31.925 49.575 20 64 20s26 11.925 26 26.475V73h3.075c4.35-.013 7.9 3.5 7.925 7.862v17.276A7.906 7.906 0 0 1 93.075 106a7.909 7.909 0 0 1-7.938-7.862v-9.425H42.863v9.425A7.909 7.909 0 0 1 34.925 106c-4.35.013-7.9-3.5-7.925-7.862V80.862A7.906 7.906 0 0 1 34.925 73Zm0 0" style="fill-rule:evenodd;fill:#fff;fill-opacity:1;stroke-width:3.056;stroke-linecap:butt;stroke-linejoin:miter;stroke:#000;stroke-opacity:1;stroke-miterlimit:4" transform="scale(.3125)"/></svg>