<svg xmlns="http://www.w3.org/2000/svg" width="44" height="38" viewBox="0 0 43 38"><path d="M16.13 10.929c-.1-.798-.5-1.599-1.1-2.098L4.73.629c-1.3-1-3.1-.798-4.1.502-1 1.3-.8 3.1.501 4.098L8.63 11.23l-7.499 6c-1.3 1-1.501 2.8-.5 4.1.998 1.3 2.8 1.5 4.098.501l10.301-8.4c.7-.6 1.1-1.4 1.1-2.301Zm0 0" style="fill-rule:nonzero;fill:#0d55ff;fill-opacity:1;stroke-width:.6;stroke-linecap:butt;stroke-linejoin:miter;stroke:#000;stroke-opacity:1;stroke-miterlimit:4" transform="matrix(1.6003 0 0 1.63455 .592 .644)"/><path d="M23.4 16.5h-8.9c-.1 0-.3 0-.4.1l-6.7 5.3c-.1.1-.1.201 0 .3 0 .1.1.1.2.1h15.9c1.599 0 3-1.4 2.9-3.1-.1-1.599-1.499-2.7-3-2.7" style="fill-rule:nonzero;fill:#00c9db;fill-opacity:1;stroke-width:.6;stroke-linecap:butt;stroke-linejoin:miter;stroke:#000;stroke-opacity:1;stroke-miterlimit:4" transform="matrix(1.6003 0 0 1.63455 .592 .644)"/><path d="M26.4 19.4a2.9 2.9 0 1 1-2.9-2.901c1.599 0 2.9 1.3 2.9 2.902" style="fill-rule:nonzero;fill:#7000f2;fill-opacity:1;stroke-width:.6;stroke-linecap:butt;stroke-linejoin:miter;stroke:#000;stroke-opacity:1;stroke-miterlimit:4" transform="matrix(1.6003 0 0 1.63455 .592 .644)"/></svg>