<svg xmlns="http://www.w3.org/2000/svg" width="40" height="40"><path d="M2.5 2.5h35v35h-35Zm4.512 4.293v25.316h4.347V21.09l3.172 11.02h4.34V6.793h-4.375v10.348c-1.055-3.45-2.113-6.899-3.172-10.348Zm21.566 6v14.926h-3.156v-4.594c-1.465.34-2.93.676-4.395 1.016v4.609c-.027.46.004.926.098 1.375.168.621.55 1.16 1.078 1.523.438.305.957.47 1.492.465h5.953c.454.028.907-.008 1.352-.097a2.792 2.792 0 0 0 1.559-1.164c.285-.454.433-.977.418-1.512V12.797Zm0 0" style="stroke:none;fill-rule:nonzero;fill:#1c4913;fill-opacity:1"/><path d="M7.012 6.793h4.312c1.059 3.45 2.117 6.898 3.172 10.348-.008-3.45 0-6.899 0-10.348h4.375v25.316h-4.344a9065.149 9065.149 0 0 1-3.168-11.02v11.02H7.012Zm21.57 6h4.39v16.539a2.65 2.65 0 0 1-.417 1.512 2.775 2.775 0 0 1-1.559 1.164 5.07 5.07 0 0 1-1.351.101H23.69c-.53 0-1.054-.16-1.492-.464a2.724 2.724 0 0 1-1.074-1.52 5.243 5.243 0 0 1-.098-1.375v-4.61c1.465-.343 2.93-.675 4.395-1.019v4.594h3.16Zm0 0" style="stroke:none;fill-rule:nonzero;fill:#fefffc;fill-opacity:1"/></svg>