<svg xmlns="http://www.w3.org/2000/svg" width="40" height="40"><path d="M2.584 17.412a2 2 0 0 1 0-2.824l12.004-12a1.994 1.994 0 0 1 2.825 0l12.003 12a2 2 0 0 1 0 2.824l-12.003 12a1.994 1.994 0 0 1-2.825 0Zm0 0" style="fill-rule:nonzero;fill:#ee513b;fill-opacity:1;stroke-width:.9;stroke-linecap:butt;stroke-linejoin:miter;stroke:#000;stroke-opacity:1;stroke-miterlimit:4" transform="matrix(1.25 0 0 1.22845 0 .345)"/><path d="m12.15 5.061-1.216 1.215 3.138 3.139a2.123 2.123 0 0 0 1.178 2.884v7.679a2.127 2.127 0 0 0-1.356 2.309 2.127 2.127 0 1 0 3.075-2.21V12.31l3 2.999a2.126 2.126 0 0 0 .678 2.588 2.128 2.128 0 0 0 2.672-.13 2.124 2.124 0 0 0-2.069-3.606l-3.219-3.221a2.122 2.122 0 0 0-.528-2.134 2.12 2.12 0 0 0-2.134-.528Zm0 0" style="fill-rule:nonzero;fill:#fff;fill-opacity:1;stroke-width:.9;stroke-linecap:butt;stroke-linejoin:miter;stroke:#000;stroke-opacity:1;stroke-miterlimit:4" transform="matrix(1.25 0 0 1.22845 0 .345)"/></svg>