<svg xmlns="http://www.w3.org/2000/svg" width="58" height="58" viewBox="0 0 58 57"><path d="M2.584 17.412a2 2 0 0 1 0-2.824L14.586 2.586a2 2 0 0 1 2.828 0l12.002 12.002a2 2 0 0 1 0 2.824L17.414 29.414a2 2 0 0 1-2.828 0Zm0 0" style="fill-rule:nonzero;fill:#ee513b;fill-opacity:1;stroke-width:.9;stroke-linecap:butt;stroke-linejoin:miter;stroke:#000;stroke-opacity:1;stroke-miterlimit:4" transform="scale(1.8125 1.78125)"/><path d="m12.149 5.061-1.216 1.215 3.14 3.14A2.124 2.124 0 0 0 15.25 12.3v7.678a2.126 2.126 0 1 0 1.718.099V12.31l3 3a2.124 2.124 0 1 0 1.282-1.147l-3.22-3.223a2.124 2.124 0 0 0-2.66-2.66Zm0 0" style="fill-rule:nonzero;fill:#fff;fill-opacity:1;stroke-width:.9;stroke-linecap:butt;stroke-linejoin:miter;stroke:#000;stroke-opacity:1;stroke-miterlimit:4" transform="scale(1.8125 1.78125)"/></svg>