<svg xmlns="http://www.w3.org/2000/svg" width="58" height="58" viewBox="0 0 58 57"><path d="M5.903 27.202 3.655 2h24.69l-2.25 25.197L15.985 30Zm0 0" style="fill-rule:nonzero;fill:#e44f26;fill-opacity:1;stroke-width:.664;stroke-linecap:butt;stroke-linejoin:miter;stroke:#000;stroke-opacity:1;stroke-miterlimit:4" transform="scale(1.8125 1.78125)"/><path d="m16 27.857 8.17-2.265 1.923-21.53H16Zm0 0" style="fill-rule:nonzero;fill:#f1662a;fill-opacity:1;stroke-width:.664;stroke-linecap:butt;stroke-linejoin:miter;stroke:#000;stroke-opacity:1;stroke-miterlimit:4" transform="scale(1.8125 1.78125)"/><path d="M16 13.408h-4.09l-.283-3.167H16v-3.09H8.25l.073.83.761 8.517H16Zm0 8.026-.013.005-3.444-.93-.22-2.465H9.222l.431 4.853 6.334 1.757.013-.005Zm0 0" style="fill-rule:nonzero;fill:#ebebeb;fill-opacity:1;stroke-width:.664;stroke-linecap:butt;stroke-linejoin:miter;stroke:#000;stroke-opacity:1;stroke-miterlimit:4" transform="scale(1.8125 1.78125)"/><path d="M15.99 13.408v3.09h3.805l-.358 4.009-3.448.93v3.217l6.336-1.757.048-.522.724-8.138.078-.83Zm0-6.257v3.09h7.465l.062-.693.14-1.568.076-.829Zm0 0" style="fill-rule:nonzero;fill:#fff;fill-opacity:1;stroke-width:.664;stroke-linecap:butt;stroke-linejoin:miter;stroke:#000;stroke-opacity:1;stroke-miterlimit:4" transform="scale(1.8125 1.78125)"/></svg>