<svg xmlns="http://www.w3.org/2000/svg" width="58" height="58" viewBox="0 0 58 57"><path d="M2 2h28v28H2V2m3.61 3.434v20.252h3.478v-8.813l2.537 8.813h3.472V5.434h-3.5v8.279c-.843-2.761-1.69-5.52-2.539-8.279H5.61m17.254 4.8v11.94h-2.528V18.5l-3.513.814V23c-.023.368.002.739.078 1.1.136.496.44.929.862 1.22.351.244.767.373 1.194.37h4.763c.362.023.724-.004 1.08-.078.512-.15.956-.48 1.245-.932.23-.36.35-.78.336-1.209V10.237Zm0 0" style="fill-rule:nonzero;fill:#1c4913;fill-opacity:1;stroke-width:.8;stroke-linecap:butt;stroke-linejoin:miter;stroke:#000;stroke-opacity:1;stroke-miterlimit:4" transform="scale(1.8125 1.78125)"/><path d="M5.61 5.434h3.448c.85 2.759 1.694 5.52 2.539 8.279-.006-2.76 0-5.518 0-8.279h3.5V25.69h-3.474c-.847-2.939-1.692-5.878-2.537-8.816v8.816H5.61Zm17.254 4.798h3.515v13.235c.011.428-.105.849-.336 1.208a2.21 2.21 0 0 1-1.248.932c-.353.075-.717.101-1.08.08h-4.762a2.064 2.064 0 0 1-1.192-.371 2.183 2.183 0 0 1-.86-1.215A4.105 4.105 0 0 1 16.823 23v-3.689c1.17-.272 2.343-.54 3.513-.813v3.675h2.528Zm0 0" style="fill-rule:nonzero;fill:#fefffc;fill-opacity:1;stroke-width:.8;stroke-linecap:butt;stroke-linejoin:miter;stroke:#000;stroke-opacity:1;stroke-miterlimit:4" transform="scale(1.8125 1.78125)"/></svg>