<svg xmlns="http://www.w3.org/2000/svg" width="44" height="44"><path d="M36.438 22c0-7.973-6.465-14.438-14.438-14.438-7.973 0-14.438 6.465-14.438 14.438 0 7.973 6.465 14.438 14.438 14.438 7.973 0 14.438-6.465 14.438-14.438Zm0 0" style="stroke:none;fill-rule:nonzero;fill:#88fbee;fill-opacity:1"/><path d="M22 0c-.66 0-1.191.535-1.191 1.191 0 .66.53 1.196 1.191 1.196 4.98 0 9.531 1.863 12.992 4.933l-2.816 2.817A15.51 15.51 0 0 0 22 6.37a15.566 15.566 0 0 0-10.172 3.774L8.168 6.48a.085.085 0 0 1-.02-.015c-.007-.008-.011-.016-.02-.02a1.184 1.184 0 0 0-1.683 0A21.847 21.847 0 0 0 0 22c0 12.129 9.871 22 22 22 5.875 0 11.402-2.29 15.555-6.445A21.847 21.847 0 0 0 44 22C44 9.871 34.129 0 22 0Zm9.371 12.64a1.195 1.195 0 0 0 1.688 0 .818.818 0 0 0 .093-.109c.004 0 .004-.004.008-.004l3.52-3.52a19.55 19.55 0 0 1 4.898 11.802H40.25a1.191 1.191 0 1 0 0 2.382h1.328A19.453 19.453 0 0 1 36.688 35l-2.833-2.828A15.566 15.566 0 0 0 37.63 22c0-.66-.535-1.191-1.191-1.191-.66 0-1.196.53-1.196 1.191 0 7.305-5.941 13.246-13.242 13.246-7.305 0-13.246-5.941-13.246-13.246 0-7.305 5.941-13.246 13.246-13.246a13.17 13.17 0 0 1 9.371 3.887ZM22 38.942c-.66 0-1.191.536-1.191 1.196v1.441A19.55 19.55 0 0 1 9.008 36.68l2.82-2.825A15.566 15.566 0 0 0 22 37.63c3.879 0 7.434-1.422 10.172-3.774L35 36.688a19.453 19.453 0 0 1-11.809 4.89v-1.441c0-.66-.53-1.196-1.191-1.196ZM2.422 23.191h3.992a15.578 15.578 0 0 0 3.73 8.98L7.32 34.993a19.55 19.55 0 0 1-4.898-11.8ZM7.312 9l2.833 2.828a15.578 15.578 0 0 0-3.73 8.98H2.421A19.453 19.453 0 0 1 7.312 9Zm0 0" style="stroke:none;fill-rule:nonzero;fill:#050505;fill-opacity:1"/><path d="M23.906 23.52c2.664 0 4.828-2.2 4.762-4.88-.059-2.597-2.25-4.644-4.848-4.644h-4.925a.511.511 0 0 0-.512.512v6.637h-2.54a.512.512 0 0 0-.515.511v1.352c0 .281.23.512.516.512h2.539v1.378h-2.54a.514.514 0 0 0-.515.512v1.356c0 .28.23.511.516.511h2.539v2.207c0 .29.234.52.52.52h1.335c.29 0 .52-.23.52-.52v-2.207h4.144c.285 0 .512-.23.512-.511v-1.352a.512.512 0 0 0-.512-.516h-4.144V23.52Zm2.387-4.762a2.389 2.389 0 0 1-2.387 2.387h-3.148V16.37h3.148a2.389 2.389 0 0 1 2.387 2.387Zm0 0" style="stroke:none;fill-rule:nonzero;fill:#050505;fill-opacity:1"/></svg>