<?xml version="1.0" encoding="UTF-8"?>
<svg xmlns="http://www.w3.org/2000/svg" xmlns:xlink="http://www.w3.org/1999/xlink" width="40px" height="40px" viewBox="0 0 40 40" version="1.1">
<g id="surface1">
<path style=" stroke:none;fill-rule:evenodd;fill:rgb(0%,0%,0%);fill-opacity:1;" d="M 8.039062 20.042969 L 8.039062 3.664062 L 31.929688 3.664062 L 31.929688 36.421875 L 8.039062 36.421875 Z M 26.324219 28.328125 C 26.511719 28.3125 26.683594 28.265625 26.847656 28.183594 C 27.445312 27.890625 27.789062 27.269531 28.0625 25.960938 C 28.171875 25.457031 29.722656 17.542969 29.742188 17.414062 C 29.777344 17.164062 29.734375 16.894531 29.625 16.765625 L 29.421875 16.636719 L 29.015625 16.636719 C 28.664062 16.636719 28.601562 16.636719 28.535156 16.664062 C 28.375 16.714844 28.246094 16.878906 28.179688 17.097656 C 28.164062 17.148438 27.945312 18.300781 27.695312 19.648438 L 27.242188 22.113281 L 27.175781 21.828125 C 26.402344 18.347656 26.113281 17.113281 26.074219 17.003906 C 26.046875 16.921875 25.996094 16.847656 25.929688 16.789062 C 25.78125 16.636719 25.765625 16.636719 25.144531 16.636719 C 24.570312 16.636719 24.554688 16.636719 24.449219 16.738281 C 24.328125 16.84375 24.277344 17.03125 24.296875 17.308594 C 24.300781 17.46875 24.355469 17.679688 25.25 21.109375 C 26.171875 24.640625 26.289062 25.125 26.339844 25.445312 C 26.40625 25.855469 26.277344 26.421875 26.054688 26.667969 C 26.011719 26.714844 26.003906 26.71875 25.941406 26.707031 C 25.898438 26.707031 25.773438 26.671875 25.652344 26.636719 C 25.285156 26.53125 25.152344 26.539062 25.011719 26.675781 C 24.882812 26.808594 24.820312 27.019531 24.820312 27.375 C 24.820312 27.71875 24.859375 27.835938 25.046875 28.019531 C 25.222656 28.199219 25.492188 28.304688 25.871094 28.335938 C 26.097656 28.351562 26.171875 28.351562 26.324219 28.328125 Z M 23.695312 25.992188 C 23.800781 25.941406 23.882812 25.847656 23.917969 25.730469 C 23.945312 25.652344 23.949219 25.601562 23.949219 25.246094 C 23.949219 24.894531 23.945312 24.835938 23.917969 24.761719 C 23.863281 24.597656 23.726562 24.496094 23.53125 24.464844 C 23.476562 24.453125 23.257812 24.453125 23.039062 24.453125 C 22.535156 24.453125 22.515625 24.4375 22.417969 24.203125 C 22.328125 23.953125 22.285156 23.753906 22.261719 23.378906 C 22.246094 22.496094 22.242188 21.613281 22.246094 20.730469 L 22.246094 18.320312 L 22.734375 18.320312 C 23.363281 18.320312 23.433594 18.3125 23.570312 18.164062 C 23.644531 18.074219 23.695312 17.960938 23.710938 17.84375 C 23.726562 17.597656 23.726562 17.355469 23.710938 17.113281 C 23.671875 16.894531 23.570312 16.742188 23.417969 16.671875 C 23.335938 16.636719 23.328125 16.636719 22.792969 16.632812 L 22.242188 16.632812 L 22.238281 14.96875 C 22.238281 13.484375 22.234375 13.292969 22.214844 13.21875 C 22.171875 13.074219 22.070312 12.953125 21.9375 12.886719 C 21.863281 12.851562 21.835938 12.851562 21.492188 12.847656 C 21.117188 12.847656 21 12.847656 20.898438 12.902344 C 20.777344 12.953125 20.691406 13.082031 20.640625 13.277344 C 20.621094 13.355469 20.59375 13.746094 20.53125 15 L 20.449219 16.628906 C 20.449219 16.628906 20.335938 16.628906 20.203125 16.644531 C 19.914062 16.660156 19.828125 16.675781 19.742188 16.761719 C 19.613281 16.886719 19.578125 17.023438 19.566406 17.378906 C 19.554688 17.835938 19.597656 18.046875 19.726562 18.183594 C 19.832031 18.296875 19.914062 18.324219 20.203125 18.328125 L 20.441406 18.347656 L 20.441406 20.78125 C 20.441406 23.101562 20.457031 23.539062 20.492188 23.882812 C 20.550781 24.390625 20.671875 24.851562 20.828125 25.148438 C 21.09375 25.671875 21.585938 25.992188 22.199219 26.0625 L 23.597656 26.0625 L 23.691406 26.007812 Z M 13.355469 25.992188 C 13.488281 25.917969 13.570312 25.777344 13.632812 25.542969 C 13.652344 25.433594 13.652344 24.988281 13.652344 19.367188 C 13.652344 13.660156 13.652344 13.3125 13.625 13.21875 C 13.554688 12.949219 13.363281 12.816406 13.097656 12.859375 C 13.050781 12.878906 12.621094 12.976562 12.148438 13.097656 C 11.671875 13.222656 11.199219 13.347656 11.097656 13.375 C 10.855469 13.433594 10.796875 13.449219 10.707031 13.542969 C 10.558594 13.675781 10.539062 13.792969 10.539062 14.371094 C 10.539062 14.933594 10.558594 15.050781 10.699219 15.195312 C 10.828125 15.324219 10.964844 15.328125 11.332031 15.234375 C 11.476562 15.203125 11.601562 15.167969 11.609375 15.167969 C 11.625 15.167969 11.632812 16.242188 11.636719 20.304688 C 11.636719 24.996094 11.640625 25.445312 11.664062 25.542969 C 11.730469 25.820312 11.820312 25.949219 11.992188 26.007812 C 12.039062 26.027344 12.171875 26.035156 12.667969 26.027344 C 13.269531 26.027344 13.285156 26.027344 13.351562 25.996094 Z M 17.796875 25.992188 C 17.929688 25.929688 18.007812 25.804688 18.074219 25.601562 L 18.105469 25.480469 L 18.113281 19.429688 C 18.113281 15.070312 18.113281 13.347656 18.09375 13.269531 C 18.050781 13 17.894531 12.855469 17.652344 12.855469 C 17.554688 12.855469 17.371094 12.894531 16.453125 13.132812 C 15.679688 13.328125 15.347656 13.425781 15.28125 13.460938 C 15.171875 13.507812 15.089844 13.597656 15.046875 13.710938 C 15.007812 13.789062 15.007812 13.804688 15.007812 14.363281 C 15.007812 14.929688 15.007812 14.929688 15.046875 15.019531 C 15.300781 15.324219 15.398438 15.328125 15.792969 15.234375 C 15.890625 15.203125 15.988281 15.1875 16.078125 15.164062 C 16.09375 15.164062 16.097656 16.804688 16.101562 20.335938 L 16.105469 25.511719 L 16.140625 25.628906 C 16.171875 25.75 16.238281 25.859375 16.328125 25.945312 C 16.4375 26.027344 16.449219 26.03125 17.121094 26.027344 C 17.695312 26.027344 17.738281 26.027344 17.792969 25.992188 Z M 17.796875 25.992188 "/>
</g>
</svg>
