<svg xmlns="http://www.w3.org/2000/svg" width="45" height="45"><path d="M22.5 0 4.73 1.86v32.57L22.5 45l17.77-10.57V1.86L22.684.022Zm15.438 33.105L22.5 42.297 7.062 33.105V19.762l15.372 9.148.023 1.66-10.547-6.285-.015 1.621 10.59 6.364.03 1.699-10.59-6.301-.015 1.613 10.59 6.364 10.695-6.399v-1.621l-.015.008v-5.258l4.761-2.844Zm-.004-15.3-6.176 3.64-9.305-5.539-.012 1.614 7.946 4.722-.067.043-.175.106-1.125.664-6.567-3.903-.012 1.606 5.176 3.082-1.222.82-.028.016-3.914-2.309-.012 1.61 2.563 1.515-2.613 1.57L7.09 17.965l15.324-9.207Zm.004-1.617L22.41 7.03 7.06 16.171V3.954L22.5 2.336l15.445 1.617V16.18Zm0 0" style="stroke:none;fill-rule:nonzero;fill:#000;fill-opacity:1"/></svg>