<svg xmlns="http://www.w3.org/2000/svg" width="4115" height="3560" viewBox="0 0 4114 3560"><path d="M16.13 10.93c-.1-.8-.5-1.6-1.1-2.1L4.73.63c-1.3-1-3.1-.8-4.1.5-1 1.3-.8 3.1.5 4.1l7.5 6-7.5 6c-1.3 1-1.5 2.8-.5 4.1 1 1.3 2.8 1.5 4.1.5l10.3-8.4c.7-.6 1.1-1.4 1.1-2.3Zm0 0" style="fill-rule:nonzero;fill:#0d55ff;fill-opacity:1;stroke-width:.6;stroke-linecap:butt;stroke-linejoin:miter;stroke:#000;stroke-opacity:1;stroke-miterlimit:4" transform="matrix(153.10755 0 0 153.13195 56.65 60.328)"/><path d="M23.4 16.5h-8.9c-.1 0-.3 0-.4.1l-6.7 5.3c-.1.1-.1.2 0 .3 0 .1.1.1.2.1h15.9c1.6 0 3-1.4 2.9-3.1-.1-1.6-1.5-2.7-3-2.7" style="fill-rule:nonzero;fill:#00c9db;fill-opacity:1;stroke-width:.6;stroke-linecap:butt;stroke-linejoin:miter;stroke:#000;stroke-opacity:1;stroke-miterlimit:4" transform="matrix(153.10755 0 0 153.13195 56.65 60.328)"/><path d="M26.4 19.4c0 1.6-1.3 2.9-2.9 2.9-1.6 0-2.9-1.3-2.9-2.9 0-1.6 1.3-2.9 2.9-2.9 1.6 0 2.9 1.3 2.9 2.9" style="fill-rule:nonzero;fill:#7000f2;fill-opacity:1;stroke-width:.6;stroke-linecap:butt;stroke-linejoin:miter;stroke:#000;stroke-opacity:1;stroke-miterlimit:4" transform="matrix(153.10755 0 0 153.13195 56.65 60.328)"/></svg>