<svg xmlns="http://www.w3.org/2000/svg" width="44" height="44"><path d="M36.438 22c0-7.977-6.465-14.438-14.438-14.438-7.977 0-14.438 6.465-14.438 14.438 0 7.973 6.465 14.438 14.438 14.438 7.973 0 14.438-6.465 14.438-14.438Zm0 0" style="stroke:none;fill-rule:nonzero;fill:#deea39;fill-opacity:1"/><path d="M22 0a1.194 1.194 0 0 0 0 2.387c4.98 0 9.531 1.867 12.996 4.933l-2.82 2.817A15.494 15.494 0 0 0 22 6.37a15.558 15.558 0 0 0-10.172 3.774L8.168 6.48c-.008-.003-.012-.011-.023-.015-.004-.008-.008-.012-.012-.024a1.2 1.2 0 0 0-1.692 0A21.875 21.875 0 0 0 0 22c0 12.133 9.867 22 22 22 5.875 0 11.398-2.29 15.559-6.441A21.875 21.875 0 0 0 44 22C44 9.867 34.133 0 22 0Zm9.371 12.64c.242.243.574.368.914.348.344-.02.66-.187.867-.457l.008-.004 3.52-3.52a19.527 19.527 0 0 1 4.898 11.802H40.25c-.656 0-1.191.535-1.191 1.191s.535 1.191 1.191 1.191h1.328A19.453 19.453 0 0 1 36.688 35l-2.833-2.828A15.555 15.555 0 0 0 37.63 22c0-.656-.531-1.191-1.191-1.191s-1.196.535-1.196 1.191c0 7.3-5.941 13.242-13.242 13.242-7.305 0-13.242-5.941-13.242-13.242 0-7.3 5.941-13.242 13.242-13.242 3.543 0 6.871 1.375 9.371 3.883ZM22 38.946c-.656 0-1.191.532-1.191 1.192v1.441A19.54 19.54 0 0 1 9.004 36.68l2.824-2.825A15.555 15.555 0 0 0 22 37.63c3.883 0 7.434-1.422 10.172-3.774L35 36.688a19.453 19.453 0 0 1-11.809 4.89v-1.441c0-.66-.535-1.192-1.191-1.192ZM2.422 23.191h3.992a15.577 15.577 0 0 0 3.73 8.98L7.32 34.997a19.54 19.54 0 0 1-4.898-11.805ZM7.312 9l2.833 2.828a15.577 15.577 0 0 0-3.73 8.98H2.421A19.453 19.453 0 0 1 7.312 9Zm0 0" style="stroke:none;fill-rule:nonzero;fill:#131416;fill-opacity:1"/><path d="M23.09 20.977v-3.872c1.543.274 1.777 1.13 1.812 1.633a.244.244 0 0 0 .246.227h1.684a.24.24 0 0 0 .18-.078.238.238 0 0 0 .066-.184c-.11-2.121-1.562-3.488-3.988-3.793v-1.305a.242.242 0 0 0-.246-.242h-1.688a.242.242 0 0 0-.246.242v1.305c-2.523.317-4 1.781-4 4.055 0 2.273 1.477 3.742 4 4.058v3.872c-1.543-.274-1.777-1.13-1.812-1.633a.241.241 0 0 0-.246-.227h-1.684a.24.24 0 0 0-.18.078.238.238 0 0 0-.066.184c.11 2.121 1.562 3.488 3.988 3.793v1.305c0 .132.11.242.246.242h1.688c.136 0 .246-.11.246-.246V29.09c2.527-.32 4-1.781 4-4.055 0-2.273-1.473-3.742-4-4.058Zm-2.18-.149c-1.816-.32-1.816-1.45-1.816-1.863 0-.41 0-1.54 1.816-1.86Zm2.18 6.067v-3.723c1.816.32 1.816 1.45 1.816 1.863 0 .41 0 1.54-1.816 1.86Zm0 0" style="stroke:none;fill-rule:nonzero;fill:#131416;fill-opacity:1"/></svg>