<svg xmlns="http://www.w3.org/2000/svg" width="58" height="58" viewBox="0 0 58 57"><path d="M11.656 28.563V4.813h34.64v47.5h-34.64Zm26.516 12.015c.27-.023.52-.094.758-.21.863-.427 1.363-1.329 1.761-3.223.157-.735 2.407-12.208 2.438-12.395.047-.363-.016-.754-.172-.941l-.293-.188h-.59c-.511 0-.601 0-.699.043-.23.074-.418.309-.516.625-.023.074-.336 1.746-.699 3.703l-.66 3.57-.094-.414c-1.125-5.043-1.543-6.835-1.597-6.992a.741.741 0 0 0-.211-.312c-.215-.219-.239-.219-1.141-.219-.828 0-.852 0-1.008.145-.176.156-.246.425-.219.828.008.234.086.535 1.383 5.511 1.336 5.118 1.508 5.825 1.582 6.286.094.597-.093 1.414-.418 1.773-.062.066-.07.074-.164.059-.062 0-.242-.055-.418-.102-.53-.152-.722-.145-.93.055-.187.191-.273.496-.273 1.011 0 .504.055.672.324.938.258.262.645.41 1.196.457.332.023.437.023.66-.008Zm-3.813-3.387a.629.629 0 0 0 .32-.379c.04-.117.048-.19.048-.703 0-.511-.008-.597-.047-.707-.078-.238-.274-.382-.559-.43-.078-.015-.398-.015-.715-.015-.73 0-.761-.023-.898-.363-.133-.36-.196-.653-.227-1.192a157.608 157.608 0 0 1-.023-3.843v-3.493h.707c.914 0 1.015-.015 1.21-.226a.94.94 0 0 0 .204-.469 7.977 7.977 0 0 0 0-1.058c-.055-.317-.203-.536-.422-.637-.121-.051-.133-.051-.906-.059h-.797l-.008-2.414c0-2.152-.008-2.426-.035-2.535a.788.788 0 0 0-.402-.484c-.11-.047-.149-.047-.645-.055-.543 0-.715 0-.863.078-.176.074-.301.262-.371.547-.032.11-.07.68-.157 2.496l-.12 2.36s-.165 0-.36.023c-.418.023-.54.047-.664.172-.188.183-.242.379-.258.894-.016.664.047.969.234 1.168.149.164.27.203.692.207l.344.028v3.53c0 3.364.02 3.997.074 4.5.086.735.258 1.4.488 1.833.383.758 1.094 1.222 1.988 1.324h2.024l.14-.078Zm-14.996 0c.196-.109.313-.312.403-.656.03-.156.03-.8.03-8.95 0-8.28 0-8.78-.042-8.92-.102-.388-.375-.58-.762-.517-.07.024-.691.168-1.375.344-.695.18-1.379.36-1.527.399-.348.086-.434.113-.567.246-.214.191-.242.363-.242 1.199 0 .82.028.988.235 1.2.187.183.382.19.918.054.207-.047.386-.094.402-.094.023 0 .031 1.555.035 7.445 0 6.801.008 7.457.043 7.598.094.402.227.59.473.672.07.031.265.039.984.031.871 0 .895 0 .988-.05Zm6.442 0c.191-.093.308-.273.402-.57l.047-.172.008-8.777c0-6.32 0-8.82-.024-8.93-.062-.39-.293-.601-.644-.601-.137 0-.407.054-1.735.402-1.125.285-1.605.426-1.703.473a.672.672 0 0 0-.34.363c-.054.113-.054.137-.054.95 0 .82 0 .82.054.952.368.438.512.446 1.086.309.141-.043.282-.07.414-.102.02 0 .024 2.38.032 7.5l.007 7.504.047.172c.047.172.145.332.274.457.16.117.176.125 1.152.117.832 0 .895 0 .973-.047Zm0 0" style="stroke:none;fill-rule:evenodd;fill:#000;fill-opacity:1"/></svg>