<svg xmlns="http://www.w3.org/2000/svg" width="44" height="44"><path d="m321.732 256.839 176.6 139.951c-3.397 14.51-17.03 25.607-33.255 25.607H38.395c-15.376 0-28.16-10.233-32.406-23.878L181.74 256.02l45.235 35.795s12.828 11.144 25.611 11.144c12.829 0 25.612-11.144 25.612-11.144Zm177.45-141.635L321.731 256.84l-43.535 34.976s-12.783 11.144-25.612 11.144c-12.783 0-25.611-11.144-25.611-11.144L181.74 256.02 4.29 115.204c0-18.784 15.331-34.112 34.104-34.112h426.682c18.773 0 34.104 15.328 34.104 34.112m0 0V388.24c0 3.457 0 6.004-.849 8.551l-176.6-139.951ZM180.891 256.02 5.14 398.519c-.85-3.412-1.7-6.823-1.7-10.28V115.204Zm0 0" style="fill-rule:nonzero;fill:#e042ff;fill-opacity:1;stroke-width:11.076;stroke-linecap:butt;stroke-linejoin:miter;stroke:#000;stroke-opacity:1;stroke-miterlimit:4" transform="matrix(.0874 0 0 .08588 0 .38)"/><path d="M465.077 426.673H38.395C17.075 426.673 0 409.57 0 388.239V157.867c0-2.592 1.699-4.275 4.291-4.275 2.503 0 4.246 1.683 4.246 4.275V388.24c0 16.238 13.633 29.883 29.903 29.883h426.637c16.225 0 29.858-13.645 29.858-29.883V157.867c0-2.592 1.699-4.275 4.246-4.275 2.593 0 4.291 1.683 4.291 4.275V388.24c0 21.332-17.074 38.434-38.395 38.434Zm0-51.214c-.894 0-1.743 0-2.592-.864l-119.432-93.832c-.85-.864-1.743-1.729-1.743-3.411 0-.865 0-1.729.894-2.593 1.698-1.683 4.246-2.547 5.945-.819l119.476 93.878c.85.818 1.698 1.682 1.698 3.41 0 .82 0 1.684-.849 2.548-.85.819-2.548 1.683-3.397 1.683Zm-426.682 0c-.85 0-2.548-.864-3.397-1.683-.85-.864-.85-1.729-.85-2.547 0-.864.85-2.593 1.7-3.411l119.431-93.878c1.743-1.728 4.29-.864 5.99.819.893.864.893 1.728.893 2.593 0 .864-.894 2.547-1.743 3.41L40.943 374.596c-.85.864-1.699.864-2.548.864Zm213.341-68.225c-13.677 0-28.16-12.008-28.16-12.008L1.7 118.616C.849 117.75 0 116.886 0 115.203c0-21.331 17.074-38.388 38.395-38.388h426.682c21.32 0 38.395 17.057 38.395 38.388 0 1.683-.849 2.547-1.698 3.411L279.896 296.091s-13.633 11.143-28.16 11.143ZM8.537 113.476l220.18 175.792s11.934 10.234 23.02 10.234c11.084 0 23.018-9.37 23.018-9.37l220.18-175.792c-.85-15.373-13.633-28.154-29.903-28.154H38.395c-16.225-.864-29.009 11.098-29.858 27.29Zm0 0" style="fill-rule:nonzero;fill:#000;fill-opacity:1;stroke-width:11.076;stroke-linecap:butt;stroke-linejoin:miter;stroke:#000;stroke-opacity:1;stroke-miterlimit:4" transform="matrix(.0874 0 0 .08588 0 .38)"/></svg>