<svg xmlns="http://www.w3.org/2000/svg" xml:space="preserve" width="800" height="800" stroke="#000" stroke-width="11.076" viewBox="0 0 503.467 503.467"><path d="M321.707 256.853 498.347 396.8c-3.413 14.507-17.067 25.6-33.28 25.6H38.4c-15.36 0-28.16-10.24-32.427-23.893L181.76 256l45.227 35.84s12.8 11.093 25.6 11.093 25.6-11.093 25.6-11.093l43.52-34.987zM499.2 115.2 321.707 256.853l-43.52 34.987s-12.8 11.093-25.6 11.093-25.6-11.093-25.6-11.093L181.76 256 4.267 115.2c0-18.773 15.36-34.133 34.133-34.133h426.667c18.773 0 34.133 15.36 34.133 34.133m0 0v273.067c0 3.413 0 5.973-.853 8.533l-176.64-139.947L499.2 115.2zM180.907 256 5.12 398.507c-.853-3.413-1.707-6.827-1.707-10.24V115.2L180.907 256z" style="fill:#e042ff"/><path d="M465.067 426.667H38.4c-21.333 0-38.4-17.067-38.4-38.4v-230.4c0-2.56 1.707-4.267 4.267-4.267s4.267 1.707 4.267 4.267v230.4c0 16.213 13.653 29.867 29.867 29.867h426.667c16.213 0 29.867-13.653 29.867-29.867v-230.4c0-2.56 1.707-4.267 4.267-4.267 2.56 0 4.267 1.707 4.267 4.267v230.4c-.002 21.333-17.069 38.4-38.402 38.4zm0-51.2c-.853 0-1.707 0-2.56-.853L343.04 280.747c-.853-.853-1.707-1.707-1.707-3.413 0-.853 0-1.707.853-2.56 1.707-1.707 4.267-2.56 5.973-.853l119.467 93.867c.853.853 1.707 1.707 1.707 3.413 0 .853 0 1.707-.853 2.56-.853.852-2.56 1.706-3.413 1.706zm-426.667 0c-.853 0-2.56-.853-3.413-1.707s-.853-1.707-.853-2.56.853-2.56 1.707-3.413l119.467-93.867c1.707-1.707 4.267-.853 5.973.853.853.853.853 1.707.853 2.56s-.853 2.56-1.707 3.413L40.96 374.613c-.853.854-1.707.854-2.56.854zM251.733 307.2c-13.653 0-28.16-11.947-28.16-11.947L1.707 118.613C.853 117.76 0 116.907 0 115.2c0-21.333 17.067-38.4 38.4-38.4h426.667c21.333 0 38.4 17.067 38.4 38.4 0 1.707-.853 2.56-1.707 3.413L279.893 296.107S266.24 307.2 251.733 307.2zM8.533 113.493l220.16 175.787s11.947 10.24 23.04 10.24 23.04-9.387 23.04-9.387l220.16-175.787c-.853-15.36-13.653-28.16-29.867-28.16H38.4C22.187 85.333 9.387 97.28 8.533 113.493z" style="fill:#000"/></svg>