<svg xmlns="http://www.w3.org/2000/svg" width="50" height="50"><path d="M29.042 61.61c0-.928-.034-3.976-.034-7.762 0-2.65.878-4.376 1.862-5.254-6.227-.72-12.774-3.155-12.774-14.034 0-3.1 1.09-5.63 2.885-7.616-.287-.72-1.254-3.606.276-7.515 0 0 2.357-.76 7.717 2.908a26.564 26.564 0 0 1 7.026-.95c2.385.005 4.787.325 7.026.95 5.36-3.668 7.711-2.908 7.711-2.908 1.536 3.91.574 6.795.282 7.515 1.794 1.985 2.88 4.517 2.88 7.616 0 10.907-6.559 13.309-12.82 14.006 1.018.883 1.913 2.61 1.913 5.265 0 3.791-.034 6.851-.034 7.78 0 .765.5 1.642 1.93 1.367C56.03 59.22 64.063 48.582 64.063 36.05c0-15.683-12.566-28.39-28.069-28.39-15.49 0-28.057 12.707-28.057 28.39 0 12.538 8.038 23.18 19.204 26.932 1.395.259 1.9-.613 1.9-1.372Zm0 0" style="fill-rule:nonzero;fill:#52ff9d;fill-opacity:1;stroke-width:3.016;stroke-linecap:round;stroke-linejoin:round;stroke:#000;stroke-opacity:1;stroke-miterlimit:10" transform="scale(.69444)"/><path d="M16.29 48.088c2.57.782 3.578 1.637 4.787 3.662 1.21 2.025 2.621 4.286 7.937 2.998" style="fill:none;stroke-width:3.016;stroke-linecap:round;stroke-linejoin:round;stroke:#000;stroke-opacity:1;stroke-miterlimit:10" transform="scale(.69444)"/></svg>